# xmcd
#
# Track frame offsets:
#  150
#  15642
#  30552
#  42743
#  58946
#  70253
#  83086
#  98742
#  116148
#  128470
#
# Disc length: 1868 seconds
#
# Revision: 0
# Processed by: cddbd v1.5.1PL2 Copyright (c) Steve Scherf et al.
# Submitted via: Collectorz.com_Music_Collector 6.9
#
DISCID=82074a0a
DTITLE=Shelly West - West By West
DYEAR=2001
DGENRE=Country
TTITLE0=01 - Flight 309 To Tennessee
TTITLE1=02 - Someone's Been Sleeping In Our Bed
TTITLE2=03 - Jose Cuervo
TTITLE3=04 - Our Love
TTITLE4=05 - Me On The One Side
TTITLE5=06 - Don't Let Her Hurt You
TTITLE6=07 - Sexy Song
TTITLE7=08 - Ask Me No Questions
TTITLE8=09 - When He Kisses Me
TTITLE9=10 - I'll Still Be Loving You
EXTD=
EXTT0=
EXTT1=
EXTT2=
EXTT3=
EXTT4=
EXTT5=
EXTT6=
EXTT7=
EXTT8=
EXTT9=
PLAYORDER=
